# This file uses centimeters as units for non-parametric coordinates.

v -31.699473 -3.201403 43.167593
v -32.000562 -2.750793 43.167593
v -32.451171 -2.449704 43.167593
v -32.982703 -2.343976 43.167593
v -33.514233 -2.449704 43.167593
v -33.964845 -2.750792 43.167593
v -34.265933 -3.201402 43.167593
v -34.371661 -3.732933 43.167593
v -34.265933 -4.264463 43.167593
v -33.964845 -4.715074 43.167593
v -33.514233 -5.016162 43.167593
v -32.982703 -5.121890 43.167593
v -32.451173 -5.016162 43.167593
v -32.000562 -4.715074 43.167593
v -31.699473 -4.264464 43.167593
v -31.593745 -3.732933 43.167593
v -31.699473 -3.201403 44.261965
v -32.000562 -2.750793 44.261965
v -32.451171 -2.449704 44.261965
v -32.982703 -2.343976 44.261965
v -33.514233 -2.449704 44.261965
v -33.964845 -2.750792 44.261965
v -34.265933 -3.201402 44.261965
v -34.371661 -3.732933 44.261965
v -34.265933 -4.264463 44.261965
v -33.964845 -4.715074 44.261965
v -33.514233 -5.016162 44.261965
v -32.982703 -5.121890 44.261965
v -32.451173 -5.016162 44.261965
v -32.000562 -4.715074 44.261965
v -31.699473 -4.264464 44.261965
v -31.593745 -3.732933 44.261965
v -31.699473 -3.201403 45.356337
v -32.000562 -2.750793 45.356337
v -32.451171 -2.449704 45.356337
v -32.982703 -2.343976 45.356337
v -33.514233 -2.449704 45.356337
v -33.964845 -2.750792 45.356337
v -34.265933 -3.201402 45.356337
v -34.371661 -3.732933 45.356337
v -34.265933 -4.264463 45.356337
v -33.964845 -4.715074 45.356337
v -33.514233 -5.016162 45.356337
v -32.982703 -5.121890 45.356337
v -32.451173 -5.016162 45.356337
v -32.000562 -4.715074 45.356337
v -31.699473 -4.264464 45.356337
v -31.593745 -3.732933 45.356337
v -31.699473 -3.201403 46.450708
v -32.000562 -2.750793 46.450708
v -32.451171 -2.449704 46.450708
v -32.982703 -2.343976 46.450708
v -33.514233 -2.449704 46.450708
v -33.964845 -2.750792 46.450708
v -34.265933 -3.201402 46.450708
v -34.371661 -3.732933 46.450708
v -34.265933 -4.264463 46.450708
v -33.964845 -4.715074 46.450708
v -33.514233 -5.016162 46.450708
v -32.982703 -5.121890 46.450708
v -32.451173 -5.016162 46.450708
v -32.000562 -4.715074 46.450708
v -31.699473 -4.264464 46.450708
v -31.593745 -3.732933 46.450708
v -31.699473 -3.201403 47.545080
v -32.000562 -2.750793 47.545080
v -32.451171 -2.449704 47.545080
v -32.982703 -2.343976 47.545080
v -33.514233 -2.449704 47.545080
v -33.964845 -2.750792 47.545080
v -34.265933 -3.201402 47.545080
v -34.371661 -3.732933 47.545080
v -34.265933 -4.264463 47.545080
v -33.964845 -4.715074 47.545080
v -33.514233 -5.016162 47.545080
v -32.982703 -5.121890 47.545080
v -32.451173 -5.016162 47.545080
v -32.000562 -4.715074 47.545080
v -31.699473 -4.264464 47.545080
v -31.593745 -3.732933 47.545080
vt 0.375000 0.312500
vt 0.390625 0.312500
vt 0.375000 0.406485
vt 0.390625 0.406485
vt 0.406250 0.312500
vt 0.406250 0.406485
vt 0.421875 0.312500
vt 0.421875 0.406485
vt 0.437500 0.312500
vt 0.437500 0.406485
vt 0.453125 0.312500
vt 0.453125 0.406485
vt 0.468750 0.312500
vt 0.468750 0.406485
vt 0.484375 0.312500
vt 0.484375 0.406485
vt 0.500000 0.312500
vt 0.500000 0.406485
vt 0.515625 0.312500
vt 0.515625 0.406485
vt 0.531250 0.312500
vt 0.531250 0.406485
vt 0.546875 0.312500
vt 0.546875 0.406485
vt 0.562500 0.312500
vt 0.562500 0.406485
vt 0.578125 0.312500
vt 0.578125 0.406485
vt 0.593750 0.312500
vt 0.593750 0.406485
vt 0.609375 0.312500
vt 0.609375 0.406485
vt 0.625000 0.312500
vt 0.625000 0.406485
vt 0.375000 0.500470
vt 0.390625 0.500470
vt 0.406250 0.500470
vt 0.421875 0.500470
vt 0.437500 0.500470
vt 0.453125 0.500470
vt 0.468750 0.500470
vt 0.484375 0.500470
vt 0.500000 0.500470
vt 0.515625 0.500470
vt 0.531250 0.500470
vt 0.546875 0.500470
vt 0.562500 0.500470
vt 0.578125 0.500470
vt 0.593750 0.500470
vt 0.609375 0.500470
vt 0.625000 0.500470
vt 0.375000 0.594455
vt 0.390625 0.594455
vt 0.406250 0.594455
vt 0.421875 0.594455
vt 0.437500 0.594455
vt 0.453125 0.594455
vt 0.468750 0.594455
vt 0.484375 0.594455
vt 0.500000 0.594455
vt 0.515625 0.594455
vt 0.531250 0.594455
vt 0.546875 0.594455
vt 0.562500 0.594455
vt 0.578125 0.594455
vt 0.593750 0.594455
vt 0.609375 0.594455
vt 0.625000 0.594455
vt 0.375000 0.688440
vt 0.390625 0.688440
vt 0.406250 0.688440
vt 0.421875 0.688440
vt 0.437500 0.688440
vt 0.453125 0.688440
vt 0.468750 0.688440
vt 0.484375 0.688440
vt 0.500000 0.688440
vt 0.515625 0.688440
vt 0.531250 0.688440
vt 0.546875 0.688440
vt 0.562500 0.688440
vt 0.578125 0.688440
vt 0.593750 0.688440
vt 0.609375 0.688440
vt 0.625000 0.688440
vt 0.644356 0.096456
vt 0.656250 0.156250
vt 0.610485 0.045765
vt 0.644356 0.216044
vt 0.610485 0.266735
vt 0.559794 0.300606
vt 0.500000 0.312500
vt 0.440206 0.300606
vt 0.389515 0.266735
vt 0.355644 0.216044
vt 0.343750 0.156250
vt 0.355644 0.096456
vt 0.389515 0.045765
vt 0.440206 0.011894
vt 0.500000 0.000000
vt 0.559794 0.011894
vt 0.644356 0.903544
vt 0.610485 0.954235
vt 0.656250 0.843750
vt 0.559794 0.988106
vt 0.500000 1.000000
vt 0.440206 0.988106
vt 0.389515 0.954235
vt 0.355644 0.903544
vt 0.343750 0.843750
vt 0.355644 0.783956
vt 0.389515 0.733265
vt 0.440206 0.699394
vt 0.500000 0.687500
vt 0.559794 0.699394
vt 0.610485 0.733265
vt 0.644356 0.783956
vn 0.947173 0.320724 0.000000
vn 0.752340 0.658775 0.000000
vn 0.923879 0.382684 0.000000
vn 0.707108 0.707106 0.000000
vn 0.442969 0.896537 0.000000
vn 0.382684 0.923879 0.000000
vn 0.066159 0.997809 0.000000
vn 0.000000 1.000000 0.000000
vn -0.320721 0.947174 0.000000
vn -0.382682 0.923880 0.000000
vn -0.658776 0.752339 0.000000
vn -0.707107 0.707107 0.000000
vn -0.896537 0.442969 0.000000
vn -0.923879 0.382684 0.000000
vn -0.997809 0.066160 0.000000
vn -1.000000 -0.000000 0.000000
vn -0.947173 -0.320724 0.000000
vn -0.923879 -0.382684 0.000000
vn -0.752339 -0.658776 0.000000
vn -0.707107 -0.707107 0.000000
vn -0.442966 -0.896538 0.000000
vn -0.382683 -0.923880 0.000000
vn -0.066159 -0.997809 0.000000
vn -0.000000 -1.000000 0.000000
vn 0.320723 -0.947173 0.000000
vn 0.382683 -0.923880 0.000000
vn 0.658776 -0.752339 0.000000
vn 0.707107 -0.707107 0.000000
vn 0.896537 -0.442969 0.000000
vn 0.923879 -0.382684 0.000000
vn 0.997809 -0.066160 0.000000
vn 1.000000 0.000000 0.000000
vn 0.923879 0.382684 0.000000
vn 0.707108 0.707106 0.000000
vn 0.382684 0.923879 0.000000
vn 0.000000 1.000000 0.000000
vn -0.382682 0.923880 0.000000
vn -0.707107 0.707107 0.000000
vn -0.923879 0.382684 0.000000
vn -1.000000 0.000000 0.000000
vn -0.923879 -0.382684 0.000000
vn -0.707107 -0.707107 0.000000
vn -0.382682 -0.923880 0.000000
vn -0.000000 -1.000000 0.000000
vn 0.382683 -0.923880 0.000000
vn 0.707107 -0.707107 0.000000
vn 0.923879 -0.382685 0.000000
vn 1.000000 0.000000 0.000000
vn 0.923879 0.382685 0.000000
vn 0.707107 0.707106 0.000000
vn 0.382684 0.923879 0.000000
vn 0.000000 1.000000 0.000000
vn -0.382682 0.923880 0.000000
vn -0.707106 0.707107 0.000000
vn -0.923879 0.382684 0.000000
vn -1.000000 0.000000 0.000000
vn -0.923879 -0.382684 0.000000
vn -0.707107 -0.707107 0.000000
vn -0.382682 -0.923880 0.000000
vn -0.000000 -1.000000 0.000000
vn 0.382683 -0.923880 0.000000
vn 0.707107 -0.707107 0.000000
vn 0.923879 -0.382685 0.000000
vn 1.000000 0.000000 0.000000
vn 0.896537 0.442969 0.000000
vn 0.658777 0.752338 0.000000
vn 0.320722 0.947173 0.000000
vn -0.066158 0.997809 0.000000
vn -0.442966 0.896538 0.000000
vn -0.752339 0.658776 0.000000
vn -0.947173 0.320723 0.000000
vn -0.997809 -0.066160 0.000000
vn -0.896537 -0.442968 0.000000
vn -0.658776 -0.752339 0.000000
vn -0.320722 -0.947173 0.000000
vn 0.066158 -0.997809 0.000000
vn 0.442967 -0.896538 0.000000
vn 0.752339 -0.658776 0.000000
vn 0.947173 -0.320724 0.000000
vn 0.997809 0.066160 0.000000
vn -0.000017 0.000000 -1.000000
vn -0.000003 0.000000 -1.000000
vn -0.000001 0.000000 -1.000000
vn 0.000006 0.000000 -1.000000
vn 0.000000 0.000000 -1.000000
vn 0.000000 0.000000 -1.000000
vn -0.000003 0.000000 -1.000000
vn -0.000003 0.000000 -1.000000
vn 0.000000 0.000000 -1.000000
vn 0.000000 0.000000 -1.000000
vn 0.000000 0.000000 -1.000000
vn 0.000000 0.000000 -1.000000
vn -0.000000 0.000000 -1.000000
vn -0.000000 0.000000 -1.000000
vn 0.000000 0.000000 -1.000000
vn 0.000000 0.000000 -1.000000
vn 0.000000 0.000000 1.000000
vn 0.000000 0.000000 1.000000
vn -0.000000 0.000000 1.000000
vn 0.000000 0.000000 1.000000
vn 0.000002 0.000000 1.000000
vn 0.000002 0.000000 1.000000
vn 0.000000 0.000000 1.000000
vn 0.000000 0.000000 1.000000
vn -0.000000 0.000000 1.000000
vn -0.000001 0.000000 1.000000
vn 0.000001 0.000000 1.000000
vn 0.000002 0.000000 1.000000
vn -0.000003 0.000000 1.000000
vn -0.000003 0.000000 1.000000
vn 0.000000 0.000000 1.000000
vn 0.000000 0.000000 1.000000
f 1/1/1 2/2/2 17/3/3
f 17/3/3 2/2/2 18/4/4
f 2/2/2 3/5/5 18/4/4
f 18/4/4 3/5/5 19/6/6
f 3/5/5 4/7/7 19/6/6
f 19/6/6 4/7/7 20/8/8
f 4/7/7 5/9/9 20/8/8
f 20/8/8 5/9/9 21/10/10
f 5/9/9 6/11/11 21/10/10
f 21/10/10 6/11/11 22/12/12
f 6/11/11 7/13/13 22/12/12
f 22/12/12 7/13/13 23/14/14
f 7/13/13 8/15/15 23/14/14
f 23/14/14 8/15/15 24/16/16
f 8/15/15 9/17/17 24/16/16
f 24/16/16 9/17/17 25/18/18
f 9/17/17 10/19/19 25/18/18
f 25/18/18 10/19/19 26/20/20
f 10/19/19 11/21/21 26/20/20
f 26/20/20 11/21/21 27/22/22
f 11/21/21 12/23/23 27/22/22
f 27/22/22 12/23/23 28/24/24
f 12/23/23 13/25/25 28/24/24
f 28/24/24 13/25/25 29/26/26
f 13/25/25 14/27/27 29/26/26
f 29/26/26 14/27/27 30/28/28
f 14/27/27 15/29/29 30/28/28
f 30/28/28 15/29/29 31/30/30
f 15/29/29 16/31/31 31/30/30
f 31/30/30 16/31/31 32/32/32
f 16/31/31 1/33/1 32/32/32
f 32/32/32 1/33/1 17/34/3
f 17/3/3 18/4/4 33/35/33
f 33/35/33 18/4/4 34/36/34
f 18/4/4 19/6/6 34/36/34
f 34/36/34 19/6/6 35/37/35
f 19/6/6 20/8/8 35/37/35
f 35/37/35 20/8/8 36/38/36
f 20/8/8 21/10/10 36/38/36
f 36/38/36 21/10/10 37/39/37
f 21/10/10 22/12/12 37/39/37
f 37/39/37 22/12/12 38/40/38
f 22/12/12 23/14/14 38/40/38
f 38/40/38 23/14/14 39/41/39
f 23/14/14 24/16/16 39/41/39
f 39/41/39 24/16/16 40/42/40
f 24/16/16 25/18/18 40/42/40
f 40/42/40 25/18/18 41/43/41
f 25/18/18 26/20/20 41/43/41
f 41/43/41 26/20/20 42/44/42
f 26/20/20 27/22/22 42/44/42
f 42/44/42 27/22/22 43/45/43
f 27/22/22 28/24/24 43/45/43
f 43/45/43 28/24/24 44/46/44
f 28/24/24 29/26/26 44/46/44
f 44/46/44 29/26/26 45/47/45
f 29/26/26 30/28/28 45/47/45
f 45/47/45 30/28/28 46/48/46
f 30/28/28 31/30/30 46/48/46
f 46/48/46 31/30/30 47/49/47
f 31/30/30 32/32/32 47/49/47
f 47/49/47 32/32/32 48/50/48
f 32/32/32 17/34/3 48/50/48
f 48/50/48 17/34/3 33/51/33
f 33/35/33 34/36/34 49/52/49
f 49/52/49 34/36/34 50/53/50
f 34/36/34 35/37/35 50/53/50
f 50/53/50 35/37/35 51/54/51
f 35/37/35 36/38/36 51/54/51
f 51/54/51 36/38/36 52/55/52
f 36/38/36 37/39/37 52/55/52
f 52/55/52 37/39/37 53/56/53
f 37/39/37 38/40/38 53/56/53
f 53/56/53 38/40/38 54/57/54
f 38/40/38 39/41/39 54/57/54
f 54/57/54 39/41/39 55/58/55
f 39/41/39 40/42/40 55/58/55
f 55/58/55 40/42/40 56/59/56
f 40/42/40 41/43/41 56/59/56
f 56/59/56 41/43/41 57/60/57
f 41/43/41 42/44/42 57/60/57
f 57/60/57 42/44/42 58/61/58
f 42/44/42 43/45/43 58/61/58
f 58/61/58 43/45/43 59/62/59
f 43/45/43 44/46/44 59/62/59
f 59/62/59 44/46/44 60/63/60
f 44/46/44 45/47/45 60/63/60
f 60/63/60 45/47/45 61/64/61
f 45/47/45 46/48/46 61/64/61
f 61/64/61 46/48/46 62/65/62
f 46/48/46 47/49/47 62/65/62
f 62/65/62 47/49/47 63/66/63
f 47/49/47 48/50/48 63/66/63
f 63/66/63 48/50/48 64/67/64
f 48/50/48 33/51/33 64/67/64
f 64/67/64 33/51/33 49/68/49
f 49/52/49 50/53/50 65/69/65
f 65/69/65 50/53/50 66/70/66
f 50/53/50 51/54/51 66/70/66
f 66/70/66 51/54/51 67/71/67
f 51/54/51 52/55/52 67/71/67
f 67/71/67 52/55/52 68/72/68
f 52/55/52 53/56/53 68/72/68
f 68/72/68 53/56/53 69/73/69
f 53/56/53 54/57/54 69/73/69
f 69/73/69 54/57/54 70/74/70
f 54/57/54 55/58/55 70/74/70
f 70/74/70 55/58/55 71/75/71
f 55/58/55 56/59/56 71/75/71
f 71/75/71 56/59/56 72/76/72
f 56/59/56 57/60/57 72/76/72
f 72/76/72 57/60/57 73/77/73
f 57/60/57 58/61/58 73/77/73
f 73/77/73 58/61/58 74/78/74
f 58/61/58 59/62/59 74/78/74
f 74/78/74 59/62/59 75/79/75
f 59/62/59 60/63/60 75/79/75
f 75/79/75 60/63/60 76/80/76
f 60/63/60 61/64/61 76/80/76
f 76/80/76 61/64/61 77/81/77
f 61/64/61 62/65/62 77/81/77
f 77/81/77 62/65/62 78/82/78
f 62/65/62 63/66/63 78/82/78
f 78/82/78 63/66/63 79/83/79
f 63/66/63 64/67/64 79/83/79
f 79/83/79 64/67/64 80/84/80
f 64/67/64 49/68/49 80/84/80
f 80/84/80 49/68/49 65/85/65
f 1/86/81 16/87/82 2/88/83
f 16/87/82 15/89/84 2/88/83
f 15/89/84 14/90/85 2/88/83
f 14/90/85 13/91/86 2/88/83
f 13/91/86 12/92/87 2/88/83
f 12/92/87 11/93/88 2/88/83
f 11/93/88 10/94/89 2/88/83
f 10/94/89 9/95/90 2/88/83
f 9/95/90 8/96/91 2/88/83
f 8/96/91 7/97/92 2/88/83
f 7/97/92 6/98/93 2/88/83
f 6/98/93 5/99/94 2/88/83
f 5/99/94 4/100/95 2/88/83
f 4/100/95 3/101/96 2/88/83
f 65/102/97 66/103/98 80/104/99
f 66/103/98 67/105/100 80/104/99
f 67/105/100 68/106/101 80/104/99
f 68/106/101 69/107/102 80/104/99
f 69/107/102 70/108/103 80/104/99
f 70/108/103 71/109/104 80/104/99
f 71/109/104 72/110/105 80/104/99
f 72/110/105 73/111/106 80/104/99
f 73/111/106 74/112/107 80/104/99
f 74/112/107 75/113/108 80/104/99
f 75/113/108 76/114/109 80/104/99
f 76/114/109 77/115/110 80/104/99
f 77/115/110 78/116/111 80/104/99
f 78/116/111 79/117/112 80/104/99
