# This file uses centimeters as units for non-parametric coordinates.

v 22.363482 1.665438 36.638505
v 17.930077 1.665438 36.638505
v 17.930077 -2.767968 36.638505
v 22.363483 -2.767968 36.638505
v 22.363482 1.665438 42.908288
v 17.930077 1.665438 42.908288
v 17.930077 -2.767968 42.908288
v 22.363483 -2.767968 42.908288
v 24.580186 3.882142 42.908288
v 15.713373 3.882142 42.908288
v 15.713374 -4.984672 42.908288
v 24.580187 -4.984671 42.908288
v 24.580186 3.882142 36.638505
v 15.713373 3.882142 36.638505
v 15.713374 -4.984672 36.638505
v 24.580187 -4.984671 36.638505
vt 0.250000 1.000000
vt 0.000000 1.000000
vt 0.250000 0.750000
vt 0.000000 0.750000
vt 0.500000 1.000000
vt 0.500000 0.750000
vt 0.750000 1.000000
vt 0.750000 0.750000
vt 1.000000 1.000000
vt 1.000000 0.750000
vt 0.250000 0.500000
vt 0.000000 0.500000
vt 0.500000 0.500000
vt 0.750000 0.500000
vt 1.000000 0.500000
vt 0.250000 0.250000
vt 0.000000 0.250000
vt 0.500000 0.250000
vt 0.750000 0.250000
vt 1.000000 0.250000
vt 0.250000 0.000000
vt 0.000000 0.000000
vt 0.500000 0.000000
vt 0.750000 0.000000
vt 1.000000 0.000000
vn 0.000000 -1.000000 0.000000
vn 0.000000 -1.000000 0.000000
vn 0.000000 -1.000000 0.000000
vn 0.000000 -1.000000 0.000000
vn 1.000000 0.000000 0.000000
vn 1.000000 0.000000 0.000000
vn 1.000000 0.000000 0.000000
vn 1.000000 0.000000 0.000000
vn -0.000000 1.000000 0.000000
vn -0.000000 1.000000 0.000000
vn -0.000000 1.000000 0.000000
vn -0.000000 1.000000 0.000000
vn -1.000000 -0.000001 0.000000
vn -1.000000 -0.000000 0.000000
vn -1.000000 -0.000000 0.000000
vn -1.000000 0.000000 0.000000
vn 0.000000 0.000000 1.000000
vn -0.000001 0.000000 1.000000
vn 0.000000 0.000000 1.000000
vn -0.000000 0.000000 1.000000
vn 0.000000 0.000000 1.000000
vn 0.000000 0.000000 1.000000
vn -0.000000 0.000000 1.000000
vn 0.000001 0.000000 1.000000
vn 0.000000 1.000000 0.000000
vn 0.000000 1.000000 0.000000
vn 0.000000 1.000000 0.000000
vn 0.000000 1.000000 0.000000
vn -1.000000 -0.000000 0.000000
vn -1.000000 -0.000000 0.000000
vn -1.000000 -0.000000 0.000000
vn -1.000000 0.000000 0.000000
vn 0.000000 -1.000000 0.000000
vn 0.000000 -1.000000 0.000000
vn 0.000000 -1.000000 0.000000
vn 0.000000 -1.000000 0.000000
vn 1.000000 0.000000 0.000000
vn 1.000000 0.000000 0.000000
vn 1.000000 0.000000 0.000000
vn 1.000000 0.000000 0.000000
vn -0.000000 0.000000 -1.000000
vn -0.000001 0.000000 -1.000000
vn 0.000001 0.000000 -1.000000
vn 0.000000 0.000000 -1.000000
vn -0.000001 0.000000 -1.000000
vn -0.000000 0.000000 -1.000000
vn -0.000000 0.000000 -1.000000
vn 0.000000 0.000000 -1.000000
f 2/1/1 1/2/2 6/3/3
f 6/3/3 1/2/2 5/4/4
f 3/5/5 2/1/6 7/6/7
f 7/6/7 2/1/6 6/3/8
f 4/7/9 3/5/10 8/8/11
f 8/8/11 3/5/10 7/6/12
f 1/9/13 4/7/14 5/10/15
f 5/10/15 4/7/14 8/8/16
f 6/3/17 5/4/18 10/11/19
f 10/11/19 5/4/18 9/12/20
f 7/6/21 6/3/17 11/13/22
f 11/13/22 6/3/17 10/11/19
f 8/8/23 7/6/21 12/14/24
f 12/14/24 7/6/21 11/13/22
f 5/10/18 8/8/23 9/15/20
f 9/15/20 8/8/23 12/14/24
f 10/11/25 9/12/26 14/16/27
f 14/16/27 9/12/26 13/17/28
f 11/13/29 10/11/30 15/18/31
f 15/18/31 10/11/30 14/16/32
f 12/14/33 11/13/34 16/19/35
f 16/19/35 11/13/34 15/18/36
f 9/15/37 12/14/38 13/20/39
f 13/20/39 12/14/38 16/19/40
f 14/16/41 13/17/42 2/21/43
f 2/21/43 13/17/42 1/22/44
f 15/18/45 14/16/41 3/23/46
f 3/23/46 14/16/41 2/21/43
f 16/19/47 15/18/45 4/24/48
f 4/24/48 15/18/45 3/23/46
f 13/20/42 16/19/47 1/25/44
f 1/25/44 16/19/47 4/24/48
