# This file uses centimeters as units for non-parametric coordinates.

v 0.231999 0.265660 -0.233934
v 0.060747 0.265660 -0.405185
v -0.173186 0.265660 -0.467867
v -0.407120 0.265660 -0.405185
v -0.578371 0.265660 -0.233934
v -0.641053 0.265660 0.000000
v -0.578371 0.265660 0.233934
v -0.407120 0.265660 0.405185
v -0.173186 0.265660 0.467867
v 0.060747 0.265660 0.405185
v 0.231999 0.265660 0.233934
v 0.294681 0.265660 0.000000
v 0.609571 0.446250 -0.451925
v 0.278739 0.446250 -0.782757
v -0.173186 0.446250 -0.903850
v -0.625111 0.446250 -0.782757
v -0.955943 0.446250 -0.451925
v -1.077036 0.446250 0.000000
v -0.955943 0.446250 0.451925
v -0.625111 0.446250 0.782757
v -0.173186 0.446250 0.903850
v 0.278739 0.446250 0.782757
v 0.609571 0.446250 0.451925
v 0.730664 0.446250 0.000000
v 0.933799 0.733527 -0.639118
v 0.465932 0.733527 -1.106985
v -0.173186 0.733527 -1.278236
v -0.812304 0.733527 -1.106985
v -1.280171 0.733527 -0.639118
v -1.451422 0.733527 0.000000
v -1.280171 0.733527 0.639118
v -0.812304 0.733527 1.106985
v -0.173186 0.733527 1.278236
v 0.465932 0.733527 1.106985
v 0.933799 0.733527 0.639118
v 1.105050 0.733527 0.000000
v 1.182588 1.107914 -0.782757
v 0.609571 1.107914 -1.355774
v -0.173186 1.107914 -1.565514
v -0.955943 1.107914 -1.355774
v -1.528961 1.107914 -0.782757
v -1.738700 1.107914 0.000000
v -1.528961 1.107914 0.782757
v -0.955943 1.107914 1.355774
v -0.173186 1.107914 1.565514
v 0.609571 1.107914 1.355774
v 1.182588 1.107914 0.782757
v 1.392328 1.107914 0.000000
v 1.338984 1.543896 -0.873052
v 0.699866 1.543896 -1.512170
v -0.173186 1.543896 -1.746103
v -1.046238 1.543896 -1.512170
v -1.685356 1.543896 -0.873052
v -1.919289 1.543896 0.000000
v -1.685356 1.543896 0.873052
v -1.046238 1.543896 1.512170
v -0.173186 1.543896 1.746103
v 0.699866 1.543896 1.512170
v 1.338984 1.543896 0.873052
v 1.572917 1.543896 0.000000
v 1.392327 2.011763 -0.903850
v 0.730664 2.011763 -1.565514
v -0.173186 2.011763 -1.807699
v -1.077036 2.011763 -1.565514
v -1.738700 2.011763 -0.903850
v -1.980885 2.011763 0.000000
v -1.738700 2.011763 0.903850
v -1.077036 2.011763 1.565514
v -0.173186 2.011763 1.807699
v 0.730664 2.011763 1.565514
v 1.392327 2.011763 0.903850
v 1.634513 2.011763 0.000000
v 1.338984 2.479631 -0.873052
v 0.699866 2.479631 -1.512170
v -0.173186 2.479631 -1.746103
v -1.046238 2.479631 -1.512170
v -1.685356 2.479631 -0.873052
v -1.919289 2.479631 0.000000
v -1.685356 2.479631 0.873052
v -1.046238 2.479631 1.512170
v -0.173186 2.479631 1.746103
v 0.699866 2.479631 1.512170
v 1.338984 2.479631 0.873052
v 1.572917 2.479631 0.000000
v 1.182588 2.915613 -0.782757
v 0.609571 2.915613 -1.355774
v -0.173186 2.915613 -1.565514
v -0.955943 2.915613 -1.355774
v -1.528961 2.915613 -0.782757
v -1.738700 2.915613 0.000000
v -1.528961 2.915613 0.782757
v -0.955943 2.915613 1.355774
v -0.173186 2.915613 1.565514
v 0.609571 2.915613 1.355774
v 1.182588 2.915613 0.782757
v 1.392328 2.915613 0.000000
v 0.933799 3.290000 -0.639118
v 0.465932 3.290000 -1.106985
v -0.173186 3.290000 -1.278236
v -0.812304 3.290000 -1.106985
v -1.280171 3.290000 -0.639118
v -1.451422 3.290000 0.000000
v -1.280171 3.290000 0.639118
v -0.812304 3.290000 1.106985
v -0.173186 3.290000 1.278236
v 0.465932 3.290000 1.106985
v 0.933799 3.290000 0.639118
v 1.105050 3.290000 0.000000
v 0.609571 3.577277 -0.451925
v 0.278739 3.577277 -0.782757
v -0.173186 3.577277 -0.903850
v -0.625111 3.577277 -0.782757
v -0.955943 3.577277 -0.451925
v -1.077036 3.577277 0.000000
v -0.955943 3.577277 0.451925
v -0.625111 3.577277 0.782757
v -0.173186 3.577277 0.903850
v 0.278739 3.577277 0.782757
v 0.609571 3.577277 0.451925
v 0.730664 3.577277 0.000000
v 0.231999 3.757867 -0.233934
v 0.060747 3.757867 -0.405185
v -0.173186 3.757867 -0.467867
v -0.407120 3.757867 -0.405185
v -0.578371 3.757867 -0.233934
v -0.641053 3.757867 0.000000
v -0.578371 3.757867 0.233934
v -0.407120 3.757867 0.405185
v -0.173186 3.757867 0.467867
v 0.060747 3.757867 0.405185
v 0.231999 3.757867 0.233934
v 0.294681 3.757867 0.000000
v -0.173186 0.204064 0.000000
v -0.173186 3.819463 0.000000
vt 0.000000 0.083333
vt 0.083333 0.083333
vt 0.166667 0.083333
vt 0.250000 0.083333
vt 0.333333 0.083333
vt 0.416667 0.083333
vt 0.500000 0.083333
vt 0.583333 0.083333
vt 0.666667 0.083333
vt 0.750000 0.083333
vt 0.833333 0.083333
vt 0.916667 0.083333
vt 1.000000 0.083333
vt 0.000000 0.166667
vt 0.083333 0.166667
vt 0.166667 0.166667
vt 0.250000 0.166667
vt 0.333333 0.166667
vt 0.416667 0.166667
vt 0.500000 0.166667
vt 0.583333 0.166667
vt 0.666667 0.166667
vt 0.750000 0.166667
vt 0.833333 0.166667
vt 0.916667 0.166667
vt 1.000000 0.166667
vt 0.000000 0.250000
vt 0.083333 0.250000
vt 0.166667 0.250000
vt 0.250000 0.250000
vt 0.333333 0.250000
vt 0.416667 0.250000
vt 0.500000 0.250000
vt 0.583333 0.250000
vt 0.666667 0.250000
vt 0.750000 0.250000
vt 0.833333 0.250000
vt 0.916667 0.250000
vt 1.000000 0.250000
vt 0.000000 0.333333
vt 0.083333 0.333333
vt 0.166667 0.333333
vt 0.250000 0.333333
vt 0.333333 0.333333
vt 0.416667 0.333333
vt 0.500000 0.333333
vt 0.583333 0.333333
vt 0.666667 0.333333
vt 0.750000 0.333333
vt 0.833333 0.333333
vt 0.916667 0.333333
vt 1.000000 0.333333
vt 0.000000 0.416667
vt 0.083333 0.416667
vt 0.166667 0.416667
vt 0.250000 0.416667
vt 0.333333 0.416667
vt 0.416667 0.416667
vt 0.500000 0.416667
vt 0.583333 0.416667
vt 0.666667 0.416667
vt 0.750000 0.416667
vt 0.833333 0.416667
vt 0.916667 0.416667
vt 1.000000 0.416667
vt 0.000000 0.500000
vt 0.083333 0.500000
vt 0.166667 0.500000
vt 0.250000 0.500000
vt 0.333333 0.500000
vt 0.416667 0.500000
vt 0.500000 0.500000
vt 0.583333 0.500000
vt 0.666667 0.500000
vt 0.750000 0.500000
vt 0.833333 0.500000
vt 0.916667 0.500000
vt 1.000000 0.500000
vt 0.000000 0.583333
vt 0.083333 0.583333
vt 0.166667 0.583333
vt 0.250000 0.583333
vt 0.333333 0.583333
vt 0.416667 0.583333
vt 0.500000 0.583333
vt 0.583333 0.583333
vt 0.666667 0.583333
vt 0.750000 0.583333
vt 0.833333 0.583333
vt 0.916667 0.583333
vt 1.000000 0.583333
vt 0.000000 0.666667
vt 0.083333 0.666667
vt 0.166667 0.666667
vt 0.250000 0.666667
vt 0.333333 0.666667
vt 0.416667 0.666667
vt 0.500000 0.666667
vt 0.583333 0.666667
vt 0.666667 0.666667
vt 0.750000 0.666667
vt 0.833333 0.666667
vt 0.916667 0.666667
vt 1.000000 0.666667
vt 0.000000 0.750000
vt 0.083333 0.750000
vt 0.166667 0.750000
vt 0.250000 0.750000
vt 0.333333 0.750000
vt 0.416667 0.750000
vt 0.500000 0.750000
vt 0.583333 0.750000
vt 0.666667 0.750000
vt 0.750000 0.750000
vt 0.833333 0.750000
vt 0.916667 0.750000
vt 1.000000 0.750000
vt 0.000000 0.833333
vt 0.083333 0.833333
vt 0.166667 0.833333
vt 0.250000 0.833333
vt 0.333333 0.833333
vt 0.416667 0.833333
vt 0.500000 0.833333
vt 0.583333 0.833333
vt 0.666667 0.833333
vt 0.750000 0.833333
vt 0.833333 0.833333
vt 0.916667 0.833333
vt 1.000000 0.833333
vt 0.000000 0.916667
vt 0.083333 0.916667
vt 0.166667 0.916667
vt 0.250000 0.916667
vt 0.333333 0.916667
vt 0.416667 0.916667
vt 0.500000 0.916667
vt 0.583333 0.916667
vt 0.666667 0.916667
vt 0.750000 0.916667
vt 0.833333 0.916667
vt 0.916667 0.916667
vt 1.000000 0.916667
vt 0.500000 0.000000
vt 0.500000 1.000000
vn 0.258712 -0.956441 -0.135233
vn 0.156435 -0.956441 -0.246471
vn 0.463779 -0.849723 -0.250758
vn 0.276266 -0.849723 -0.449052
vn 0.012241 -0.956441 -0.291667
vn 0.014727 -0.849723 -0.527023
vn -0.135233 -0.956441 -0.258712
vn -0.250758 -0.849723 -0.463779
vn -0.246471 -0.956441 -0.156435
vn -0.449052 -0.849723 -0.276266
vn -0.291668 -0.956441 -0.012241
vn -0.527023 -0.849723 -0.014727
vn -0.258712 -0.956441 0.135233
vn -0.463779 -0.849723 0.250758
vn -0.156435 -0.956441 0.246471
vn -0.276266 -0.849723 0.449052
vn -0.012241 -0.956441 0.291667
vn -0.014727 -0.849723 0.527023
vn 0.135233 -0.956441 0.258712
vn 0.250758 -0.849723 0.463779
vn 0.246471 -0.956441 0.156435
vn 0.449052 -0.849723 0.276266
vn 0.291668 -0.956441 0.012241
vn 0.527023 -0.849723 0.014727
vn 0.634574 -0.689085 -0.349967
vn 0.374574 -0.689085 -0.620367
vn 0.014207 -0.689085 -0.724541
vn -0.349967 -0.689085 -0.634574
vn -0.620367 -0.689085 -0.374574
vn -0.724541 -0.689085 -0.014207
vn -0.634574 -0.689085 0.349967
vn -0.374574 -0.689085 0.620367
vn -0.014207 -0.689085 0.724541
vn 0.349967 -0.689085 0.634574
vn 0.620367 -0.689085 0.374574
vn 0.724541 -0.689085 0.014207
vn 0.762768 -0.484956 -0.427789
vn 0.446682 -0.484956 -0.751860
vn 0.010908 -0.484956 -0.874471
vn -0.427789 -0.484956 -0.762768
vn -0.751860 -0.484956 -0.446682
vn -0.874471 -0.484956 -0.010908
vn -0.762768 -0.484955 0.427789
vn -0.446682 -0.484956 0.751860
vn -0.010908 -0.484956 0.874471
vn 0.427789 -0.484956 0.762768
vn 0.751860 -0.484956 0.446682
vn 0.874471 -0.484956 0.010908
vn 0.841371 -0.250325 -0.478990
vn 0.489154 -0.250325 -0.835504
vn 0.005868 -0.250325 -0.968144
vn -0.478990 -0.250325 -0.841371
vn -0.835504 -0.250325 -0.489154
vn -0.968144 -0.250325 -0.005868
vn -0.841371 -0.250325 0.478990
vn -0.489154 -0.250325 0.835504
vn -0.005868 -0.250325 0.968144
vn 0.478990 -0.250325 0.841371
vn 0.835504 -0.250325 0.489154
vn 0.968144 -0.250325 0.005868
vn 0.866025 0.000000 -0.500000
vn 0.500000 -0.000000 -0.866025
vn 0.000000 0.000000 -1.000000
vn -0.500000 0.000000 -0.866025
vn -0.866025 -0.000000 -0.500000
vn -1.000000 0.000000 0.000000
vn -0.866025 0.000000 0.500000
vn -0.500000 -0.000000 0.866025
vn 0.000000 0.000000 1.000000
vn 0.500000 -0.000000 0.866025
vn 0.866025 -0.000000 0.500000
vn 1.000000 -0.000000 0.000000
vn 0.835504 0.250325 -0.489154
vn 0.478990 0.250325 -0.841371
vn -0.005868 0.250325 -0.968144
vn -0.489154 0.250325 -0.835504
vn -0.841371 0.250325 -0.478991
vn -0.968144 0.250325 0.005868
vn -0.835504 0.250325 0.489154
vn -0.478990 0.250325 0.841371
vn 0.005868 0.250325 0.968144
vn 0.489154 0.250325 0.835504
vn 0.841371 0.250325 0.478991
vn 0.968144 0.250325 -0.005868
vn 0.751860 0.484956 -0.446682
vn 0.427789 0.484956 -0.762768
vn -0.010908 0.484956 -0.874471
vn -0.446682 0.484956 -0.751860
vn -0.762768 0.484955 -0.427789
vn -0.874471 0.484956 0.010908
vn -0.751860 0.484956 0.446682
vn -0.427789 0.484956 0.762768
vn 0.010908 0.484956 0.874471
vn 0.446682 0.484956 0.751860
vn 0.762768 0.484955 0.427789
vn 0.874471 0.484956 -0.010908
vn 0.620368 0.689085 -0.374574
vn 0.349967 0.689085 -0.634574
vn -0.014207 0.689085 -0.724541
vn -0.374574 0.689085 -0.620367
vn -0.634574 0.689085 -0.349967
vn -0.724541 0.689085 0.014207
vn -0.620367 0.689085 0.374574
vn -0.349967 0.689085 0.634574
vn 0.014207 0.689085 0.724541
vn 0.374574 0.689085 0.620367
vn 0.634574 0.689085 0.349967
vn 0.724541 0.689085 -0.014207
vn 0.449052 0.849723 -0.276266
vn 0.250758 0.849723 -0.463779
vn -0.014727 0.849723 -0.527023
vn -0.276266 0.849723 -0.449052
vn -0.463779 0.849723 -0.250757
vn -0.527023 0.849723 0.014727
vn -0.449052 0.849723 0.276266
vn -0.250758 0.849723 0.463779
vn 0.014727 0.849723 0.527023
vn 0.276266 0.849723 0.449052
vn 0.463779 0.849723 0.250757
vn 0.527023 0.849723 -0.014727
vn 0.246471 0.956441 -0.156435
vn 0.135233 0.956441 -0.258712
vn -0.012241 0.956441 -0.291667
vn -0.156435 0.956441 -0.246471
vn -0.258712 0.956441 -0.135233
vn -0.291668 0.956441 0.012241
vn -0.246471 0.956441 0.156435
vn -0.135233 0.956441 0.258712
vn 0.012241 0.956441 0.291667
vn 0.156435 0.956441 0.246471
vn 0.258712 0.956441 0.135233
vn 0.291668 0.956441 -0.012241
vn -0.000000 -1.000000 0.000000
vn 0.000000 1.000000 0.000000
f 1/1/1 2/2/2 13/14/3
f 13/14/3 2/2/2 14/15/4
f 2/2/2 3/3/5 14/15/4
f 14/15/4 3/3/5 15/16/6
f 3/3/5 4/4/7 15/16/6
f 15/16/6 4/4/7 16/17/8
f 4/4/7 5/5/9 16/17/8
f 16/17/8 5/5/9 17/18/10
f 5/5/9 6/6/11 17/18/10
f 17/18/10 6/6/11 18/19/12
f 6/6/11 7/7/13 18/19/12
f 18/19/12 7/7/13 19/20/14
f 7/7/13 8/8/15 19/20/14
f 19/20/14 8/8/15 20/21/16
f 8/8/15 9/9/17 20/21/16
f 20/21/16 9/9/17 21/22/18
f 9/9/17 10/10/19 21/22/18
f 21/22/18 10/10/19 22/23/20
f 10/10/19 11/11/21 22/23/20
f 22/23/20 11/11/21 23/24/22
f 11/11/21 12/12/23 23/24/22
f 23/24/22 12/12/23 24/25/24
f 12/12/23 1/13/1 24/25/24
f 24/25/24 1/13/1 13/26/3
f 13/14/3 14/15/4 25/27/25
f 25/27/25 14/15/4 26/28/26
f 14/15/4 15/16/6 26/28/26
f 26/28/26 15/16/6 27/29/27
f 15/16/6 16/17/8 27/29/27
f 27/29/27 16/17/8 28/30/28
f 16/17/8 17/18/10 28/30/28
f 28/30/28 17/18/10 29/31/29
f 17/18/10 18/19/12 29/31/29
f 29/31/29 18/19/12 30/32/30
f 18/19/12 19/20/14 30/32/30
f 30/32/30 19/20/14 31/33/31
f 19/20/14 20/21/16 31/33/31
f 31/33/31 20/21/16 32/34/32
f 20/21/16 21/22/18 32/34/32
f 32/34/32 21/22/18 33/35/33
f 21/22/18 22/23/20 33/35/33
f 33/35/33 22/23/20 34/36/34
f 22/23/20 23/24/22 34/36/34
f 34/36/34 23/24/22 35/37/35
f 23/24/22 24/25/24 35/37/35
f 35/37/35 24/25/24 36/38/36
f 24/25/24 13/26/3 36/38/36
f 36/38/36 13/26/3 25/39/25
f 25/27/25 26/28/26 37/40/37
f 37/40/37 26/28/26 38/41/38
f 26/28/26 27/29/27 38/41/38
f 38/41/38 27/29/27 39/42/39
f 27/29/27 28/30/28 39/42/39
f 39/42/39 28/30/28 40/43/40
f 28/30/28 29/31/29 40/43/40
f 40/43/40 29/31/29 41/44/41
f 29/31/29 30/32/30 41/44/41
f 41/44/41 30/32/30 42/45/42
f 30/32/30 31/33/31 42/45/42
f 42/45/42 31/33/31 43/46/43
f 31/33/31 32/34/32 43/46/43
f 43/46/43 32/34/32 44/47/44
f 32/34/32 33/35/33 44/47/44
f 44/47/44 33/35/33 45/48/45
f 33/35/33 34/36/34 45/48/45
f 45/48/45 34/36/34 46/49/46
f 34/36/34 35/37/35 46/49/46
f 46/49/46 35/37/35 47/50/47
f 35/37/35 36/38/36 47/50/47
f 47/50/47 36/38/36 48/51/48
f 36/38/36 25/39/25 48/51/48
f 48/51/48 25/39/25 37/52/37
f 37/40/37 38/41/38 49/53/49
f 49/53/49 38/41/38 50/54/50
f 38/41/38 39/42/39 50/54/50
f 50/54/50 39/42/39 51/55/51
f 39/42/39 40/43/40 51/55/51
f 51/55/51 40/43/40 52/56/52
f 40/43/40 41/44/41 52/56/52
f 52/56/52 41/44/41 53/57/53
f 41/44/41 42/45/42 53/57/53
f 53/57/53 42/45/42 54/58/54
f 42/45/42 43/46/43 54/58/54
f 54/58/54 43/46/43 55/59/55
f 43/46/43 44/47/44 55/59/55
f 55/59/55 44/47/44 56/60/56
f 44/47/44 45/48/45 56/60/56
f 56/60/56 45/48/45 57/61/57
f 45/48/45 46/49/46 57/61/57
f 57/61/57 46/49/46 58/62/58
f 46/49/46 47/50/47 58/62/58
f 58/62/58 47/50/47 59/63/59
f 47/50/47 48/51/48 59/63/59
f 59/63/59 48/51/48 60/64/60
f 48/51/48 37/52/37 60/64/60
f 60/64/60 37/52/37 49/65/49
f 49/53/49 50/54/50 61/66/61
f 61/66/61 50/54/50 62/67/62
f 50/54/50 51/55/51 62/67/62
f 62/67/62 51/55/51 63/68/63
f 51/55/51 52/56/52 63/68/63
f 63/68/63 52/56/52 64/69/64
f 52/56/52 53/57/53 64/69/64
f 64/69/64 53/57/53 65/70/65
f 53/57/53 54/58/54 65/70/65
f 65/70/65 54/58/54 66/71/66
f 54/58/54 55/59/55 66/71/66
f 66/71/66 55/59/55 67/72/67
f 55/59/55 56/60/56 67/72/67
f 67/72/67 56/60/56 68/73/68
f 56/60/56 57/61/57 68/73/68
f 68/73/68 57/61/57 69/74/69
f 57/61/57 58/62/58 69/74/69
f 69/74/69 58/62/58 70/75/70
f 58/62/58 59/63/59 70/75/70
f 70/75/70 59/63/59 71/76/71
f 59/63/59 60/64/60 71/76/71
f 71/76/71 60/64/60 72/77/72
f 60/64/60 49/65/49 72/77/72
f 72/77/72 49/65/49 61/78/61
f 61/66/61 62/67/62 73/79/73
f 73/79/73 62/67/62 74/80/74
f 62/67/62 63/68/63 74/80/74
f 74/80/74 63/68/63 75/81/75
f 63/68/63 64/69/64 75/81/75
f 75/81/75 64/69/64 76/82/76
f 64/69/64 65/70/65 76/82/76
f 76/82/76 65/70/65 77/83/77
f 65/70/65 66/71/66 77/83/77
f 77/83/77 66/71/66 78/84/78
f 66/71/66 67/72/67 78/84/78
f 78/84/78 67/72/67 79/85/79
f 67/72/67 68/73/68 79/85/79
f 79/85/79 68/73/68 80/86/80
f 68/73/68 69/74/69 80/86/80
f 80/86/80 69/74/69 81/87/81
f 69/74/69 70/75/70 81/87/81
f 81/87/81 70/75/70 82/88/82
f 70/75/70 71/76/71 82/88/82
f 82/88/82 71/76/71 83/89/83
f 71/76/71 72/77/72 83/89/83
f 83/89/83 72/77/72 84/90/84
f 72/77/72 61/78/61 84/90/84
f 84/90/84 61/78/61 73/91/73
f 73/79/73 74/80/74 85/92/85
f 85/92/85 74/80/74 86/93/86
f 74/80/74 75/81/75 86/93/86
f 86/93/86 75/81/75 87/94/87
f 75/81/75 76/82/76 87/94/87
f 87/94/87 76/82/76 88/95/88
f 76/82/76 77/83/77 88/95/88
f 88/95/88 77/83/77 89/96/89
f 77/83/77 78/84/78 89/96/89
f 89/96/89 78/84/78 90/97/90
f 78/84/78 79/85/79 90/97/90
f 90/97/90 79/85/79 91/98/91
f 79/85/79 80/86/80 91/98/91
f 91/98/91 80/86/80 92/99/92
f 80/86/80 81/87/81 92/99/92
f 92/99/92 81/87/81 93/100/93
f 81/87/81 82/88/82 93/100/93
f 93/100/93 82/88/82 94/101/94
f 82/88/82 83/89/83 94/101/94
f 94/101/94 83/89/83 95/102/95
f 83/89/83 84/90/84 95/102/95
f 95/102/95 84/90/84 96/103/96
f 84/90/84 73/91/73 96/103/96
f 96/103/96 73/91/73 85/104/85
f 85/92/85 86/93/86 97/105/97
f 97/105/97 86/93/86 98/106/98
f 86/93/86 87/94/87 98/106/98
f 98/106/98 87/94/87 99/107/99
f 87/94/87 88/95/88 99/107/99
f 99/107/99 88/95/88 100/108/100
f 88/95/88 89/96/89 100/108/100
f 100/108/100 89/96/89 101/109/101
f 89/96/89 90/97/90 101/109/101
f 101/109/101 90/97/90 102/110/102
f 90/97/90 91/98/91 102/110/102
f 102/110/102 91/98/91 103/111/103
f 91/98/91 92/99/92 103/111/103
f 103/111/103 92/99/92 104/112/104
f 92/99/92 93/100/93 104/112/104
f 104/112/104 93/100/93 105/113/105
f 93/100/93 94/101/94 105/113/105
f 105/113/105 94/101/94 106/114/106
f 94/101/94 95/102/95 106/114/106
f 106/114/106 95/102/95 107/115/107
f 95/102/95 96/103/96 107/115/107
f 107/115/107 96/103/96 108/116/108
f 96/103/96 85/104/85 108/116/108
f 108/116/108 85/104/85 97/117/97
f 97/105/97 98/106/98 109/118/109
f 109/118/109 98/106/98 110/119/110
f 98/106/98 99/107/99 110/119/110
f 110/119/110 99/107/99 111/120/111
f 99/107/99 100/108/100 111/120/111
f 111/120/111 100/108/100 112/121/112
f 100/108/100 101/109/101 112/121/112
f 112/121/112 101/109/101 113/122/113
f 101/109/101 102/110/102 113/122/113
f 113/122/113 102/110/102 114/123/114
f 102/110/102 103/111/103 114/123/114
f 114/123/114 103/111/103 115/124/115
f 103/111/103 104/112/104 115/124/115
f 115/124/115 104/112/104 116/125/116
f 104/112/104 105/113/105 116/125/116
f 116/125/116 105/113/105 117/126/117
f 105/113/105 106/114/106 117/126/117
f 117/126/117 106/114/106 118/127/118
f 106/114/106 107/115/107 118/127/118
f 118/127/118 107/115/107 119/128/119
f 107/115/107 108/116/108 119/128/119
f 119/128/119 108/116/108 120/129/120
f 108/116/108 97/117/97 120/129/120
f 120/129/120 97/117/97 109/130/109
f 109/118/109 110/119/110 121/131/121
f 121/131/121 110/119/110 122/132/122
f 110/119/110 111/120/111 122/132/122
f 122/132/122 111/120/111 123/133/123
f 111/120/111 112/121/112 123/133/123
f 123/133/123 112/121/112 124/134/124
f 112/121/112 113/122/113 124/134/124
f 124/134/124 113/122/113 125/135/125
f 113/122/113 114/123/114 125/135/125
f 125/135/125 114/123/114 126/136/126
f 114/123/114 115/124/115 126/136/126
f 126/136/126 115/124/115 127/137/127
f 115/124/115 116/125/116 127/137/127
f 127/137/127 116/125/116 128/138/128
f 116/125/116 117/126/117 128/138/128
f 128/138/128 117/126/117 129/139/129
f 117/126/117 118/127/118 129/139/129
f 129/139/129 118/127/118 130/140/130
f 118/127/118 119/128/119 130/140/130
f 130/140/130 119/128/119 131/141/131
f 119/128/119 120/129/120 131/141/131
f 131/141/131 120/129/120 132/142/132
f 120/129/120 109/130/109 132/142/132
f 132/142/132 109/130/109 121/143/121
f 2/2/2 1/1/1 133/144/133
f 3/3/5 2/2/2 133/144/133
f 4/4/7 3/3/5 133/144/133
f 5/5/9 4/4/7 133/144/133
f 6/6/11 5/5/9 133/144/133
f 7/7/13 6/6/11 133/144/133
f 8/8/15 7/7/13 133/144/133
f 9/9/17 8/8/15 133/144/133
f 10/10/19 9/9/17 133/144/133
f 11/11/21 10/10/19 133/144/133
f 12/12/23 11/11/21 133/144/133
f 1/13/1 12/12/23 133/144/133
f 121/131/121 122/132/122 134/145/134
f 122/132/122 123/133/123 134/145/134
f 123/133/123 124/134/124 134/145/134
f 124/134/124 125/135/125 134/145/134
f 125/135/125 126/136/126 134/145/134
f 126/136/126 127/137/127 134/145/134
f 127/137/127 128/138/128 134/145/134
f 128/138/128 129/139/129 134/145/134
f 129/139/129 130/140/130 134/145/134
f 130/140/130 131/141/131 134/145/134
f 131/141/131 132/142/132 134/145/134
f 132/142/132 121/143/121 134/145/134
