# This file uses centimeters as units for non-parametric coordinates.

v 12.115881 -3.031218 9.641250
v 12.622810 -3.135652 9.641250
v 11.830144 -3.135652 9.222523
v 11.931068 -3.135652 10.113290
v 12.844003 -3.344518 9.222523
v 12.751297 -3.304628 10.113290
v 11.359595 -3.344518 9.275836
v 12.051337 -3.344518 8.803795
v 12.323777 -3.304628 10.405027
v 11.460518 -3.344518 10.166604
v 13.193684 -3.722361 9.275836
v 12.558267 -3.448951 8.803795
v 13.100978 -3.682471 10.166604
v 11.289973 -3.682471 8.890059
v 11.174782 -3.448951 9.747876
v 11.717493 -3.682471 8.598322
v 12.245937 -3.682471 10.750077
v 11.382679 -3.722361 10.511653
v 13.124062 -4.060314 8.890059
v 13.322171 -3.891338 9.747876
v 12.731353 -3.891338 8.598322
v 13.023138 -4.060314 10.511653
v 11.035538 -4.124857 8.976321
v 10.920348 -3.891338 9.834139
v 11.890578 -4.124857 8.392847
v 12.595617 -4.060314 10.803391
v 11.775387 -3.891338 10.803391
v 11.048835 -4.060314 10.306180
v 13.182926 -4.567244 8.976321
v 13.381031 -4.398267 9.834139
v 12.397508 -4.229290 8.392847
v 13.196223 -4.502701 10.306180
v 11.208623 -4.567244 8.770847
v 10.850730 -4.229290 9.448361
v 11.636144 -4.567244 8.479109
v 12.341183 -4.502701 10.889653
v 11.834253 -4.398267 10.889653
v 11.107699 -4.567244 10.392441
v 12.849082 -4.905197 8.770847
v 13.311413 -4.736220 9.448361
v 12.456374 -4.736220 8.479109
v 12.941788 -4.945086 10.392441
v 11.130783 -4.945086 9.115896
v 10.909590 -4.736220 9.534624
v 11.985824 -4.945086 8.532423
v 12.514268 -4.945086 10.684178
v 11.500408 -4.736220 10.684178
v 11.038077 -4.905197 10.006664
v 12.771243 -5.283040 9.115896
v 13.056979 -5.178607 9.534624
v 12.872166 -5.283040 10.006664
v 11.480464 -5.322929 9.169210
v 11.907984 -5.322929 8.877473
v 12.180424 -5.283040 10.478704
v 11.673494 -5.178607 10.478704
v 11.387758 -5.283040 10.059977
v 12.300694 -5.491906 9.169210
v 12.401617 -5.491906 10.059977
v 11.608951 -5.491906 9.641250
v 12.115881 -5.596340 9.641250
vt 0.419355 0.411025
vt 0.387097 0.355153
vt 0.483871 0.411025
vt 0.419355 0.299280
vt 0.483871 0.299280
vt 0.516129 0.355153
vt 0.387097 0.466898
vt 0.516129 0.466898
vt 0.483871 0.522771
vt 0.419355 0.522771
vt 0.322581 0.466898
vt 0.407033 0.405539
vt 0.302644 0.405539
vt 0.354839 0.367618
vt 0.290323 0.411025
vt 0.225806 0.411025
vt 0.322581 0.355153
vt 0.193548 0.355153
vt 0.225806 0.299280
vt 0.290323 0.299280
vt 0.548387 0.367618
vt 0.600582 0.405539
vt 0.496192 0.405539
vt 0.580645 0.466898
vt 0.387097 0.578643
vt 0.322581 0.578643
vt 0.290323 0.522771
vt 0.205870 0.237922
vt 0.258065 0.200000
vt 0.310259 0.237922
vt 0.225806 0.522771
vt 0.193548 0.466898
vt 0.612903 0.522771
vt 0.580645 0.578643
vt 0.516129 0.578643
vt 0.580645 0.355153
vt 0.612903 0.299280
vt 0.612903 0.411025
vt 0.677419 0.299280
vt 0.709677 0.355153
vt 0.677419 0.411025
vt 0.399418 0.584129
vt 0.503808 0.584129
vt 0.451613 0.622051
vt 0.129032 0.355153
vt 0.096774 0.411025
vt 0.096774 0.299280
vt 0.032258 0.411025
vt 0.000000 0.355153
vt 0.032258 0.299280
vt 0.129032 0.466898
vt 0.213485 0.405539
vt 0.109096 0.405539
vt 0.161290 0.367618
vt 0.709677 0.466898
vt 0.677419 0.522771
vt 0.310259 0.584129
vt 0.258065 0.622051
vt 0.205870 0.584129
vt 0.419355 0.634516
vt 0.387097 0.690388
vt 0.322581 0.690388
vt 0.290323 0.634516
vt 0.903226 0.355153
vt 0.870968 0.411025
vt 0.870968 0.299280
vt 0.806452 0.411025
vt 0.774194 0.355153
vt 0.806452 0.299280
vt 0.193548 0.578643
vt 0.129032 0.578643
vt 0.096774 0.522771
vt 0.592967 0.584129
vt 0.697356 0.584129
vt 0.645161 0.622051
vt 0.612903 0.634516
vt 0.580645 0.690388
vt 0.516129 0.690388
vt 0.483871 0.634516
vt 0.689741 0.405539
vt 0.741935 0.367618
vt 0.794130 0.405539
vt 0.774194 0.466898
vt 0.987679 0.405539
vt 0.967742 0.466898
vt 0.935484 0.367618
vt 0.903226 0.466898
vt 0.883289 0.405539
vt 0.032258 0.522771
vt 0.000000 0.466898
vt 0.709677 0.578643
vt 0.806452 0.522771
vt 0.774194 0.578643
vt 0.225806 0.634516
vt 0.193548 0.690388
vt 0.129032 0.690388
vt 0.096774 0.634516
vt 0.161290 0.789669
vt 0.109096 0.751747
vt 0.213485 0.751747
vt 0.870968 0.522771
vt 0.116711 0.584129
vt 0.064516 0.622051
vt 0.012321 0.584129
vt 0.806452 0.634516
vt 0.774194 0.690388
vt 0.709677 0.690388
vt 0.677419 0.634516
vt 1.000000 0.522771
vt 0.967742 0.578643
vt 0.903226 0.578643
vt 0.786515 0.584129
vt 0.838710 0.622051
vt 0.890904 0.584129
vt 1.000000 0.634516
vt 0.967742 0.690388
vt 0.903226 0.690388
vt 0.870968 0.634516
vt 0.225806 0.299280
vt 0.290323 0.299280
vt 0.290323 0.299280
vt 0.290323 0.299280
vn 0.188493 0.914957 -0.356825
vn 0.188492 0.914958 -0.356824
vn 0.188492 0.914958 -0.356823
vn 0.188492 0.914959 -0.356821
vn 0.188491 0.914959 -0.356822
vn 0.188491 0.914958 -0.356824
vn -0.400985 0.914957 0.045432
vn -0.400984 0.914958 0.045431
vn -0.400983 0.914958 0.045431
vn -0.400982 0.914959 0.045431
vn -0.400982 0.914959 0.045431
vn -0.400983 0.914958 0.045432
vn 0.193491 0.939234 0.283551
vn 0.193492 0.939234 0.283551
vn 0.193493 0.939233 0.283551
vn 0.193494 0.939233 0.283551
vn 0.193494 0.939233 0.283551
vn 0.729966 0.681972 0.045432
vn 0.729967 0.681971 0.045432
vn 0.729967 0.681970 0.045431
vn 0.729968 0.681970 0.045431
vn 0.729968 0.681970 0.045431
vn 0.729968 0.681970 0.045431
vn -0.386986 0.727077 -0.567099
vn -0.386986 0.727076 -0.567100
vn -0.386985 0.727076 -0.567100
vn -0.386985 0.727076 -0.567101
vn -0.386985 0.727076 -0.567101
vn -0.223819 0.681969 0.696292
vn -0.223822 0.681969 0.696292
vn -0.223821 0.681970 0.696291
vn -0.223822 0.681970 0.696290
vn -0.223821 0.681971 0.696290
vn -0.223822 0.681970 0.696291
vn 0.642850 0.514921 -0.567098
vn 0.642850 0.514919 -0.567100
vn 0.642850 0.514918 -0.567100
vn 0.642851 0.514917 -0.567101
vn 0.642851 0.514917 -0.567101
vn 0.475143 0.537976 0.696291
vn 0.475144 0.537975 0.696291
vn 0.475144 0.537975 0.696291
vn 0.475144 0.537975 0.696291
vn 0.475145 0.537974 0.696292
vn 0.475146 0.537973 0.696292
vn -0.861295 0.448980 -0.237882
vn -0.861294 0.448981 -0.237882
vn -0.861296 0.448979 -0.237882
vn -0.861297 0.448978 -0.237879
vn -0.861297 0.448976 -0.237883
vn -0.861294 0.448978 -0.237890
vn 0.092494 0.448979 -0.888742
vn 0.092494 0.448980 -0.888742
vn 0.092495 0.448981 -0.888741
vn 0.092495 0.448980 -0.888741
vn 0.092496 0.448982 -0.888741
vn 0.092497 0.448982 -0.888740
vn -0.762436 0.514916 0.391857
vn -0.762436 0.514917 0.391857
vn -0.762435 0.514918 0.391857
vn -0.762435 0.514919 0.391857
vn -0.762434 0.514920 0.391856
vn 0.968622 0.071988 -0.237886
vn 0.968623 0.071993 -0.237878
vn 0.968623 0.071995 -0.237880
vn 0.968624 0.071998 -0.237876
vn 0.968622 0.071997 -0.237882
vn 0.968622 0.071996 -0.237882
vn 0.903874 0.171639 0.391858
vn 0.903876 0.171638 0.391854
vn 0.903875 0.171636 0.391856
vn 0.903876 0.171635 0.391855
vn 0.903874 0.171633 0.391861
vn -0.556309 0.160992 -0.815232
vn -0.556308 0.160992 -0.815232
vn -0.556309 0.160991 -0.815232
vn -0.556308 0.160993 -0.815232
vn -0.556309 0.160990 -0.815231
vn -0.556311 0.160987 -0.815231
vn 0.035361 0.171638 0.984525
vn 0.035360 0.171638 0.984525
vn 0.035359 0.171639 0.984525
vn 0.035358 0.171639 0.984525
vn 0.035357 0.171639 0.984525
vn -0.574640 0.071997 0.815233
vn -0.574641 0.071998 0.815233
vn -0.574643 0.071997 0.815231
vn -0.574642 0.071998 0.815232
vn -0.574645 0.071997 0.815230
vn -0.574646 0.071996 0.815229
vn 0.574641 -0.071997 -0.815232
vn 0.574642 -0.071998 -0.815231
vn 0.574642 -0.071997 -0.815232
vn 0.574643 -0.071997 -0.815231
vn 0.574642 -0.071996 -0.815232
vn 0.574642 -0.071998 -0.815232
vn 0.556311 -0.160987 0.815231
vn 0.556310 -0.160990 0.815231
vn 0.556309 -0.160991 0.815231
vn 0.556308 -0.160992 0.815232
vn 0.556308 -0.160992 0.815232
vn 0.556308 -0.160992 0.815232
vn -0.903876 -0.171644 -0.391849
vn -0.903876 -0.171639 -0.391852
vn -0.903875 -0.171637 -0.391855
vn -0.903875 -0.171633 -0.391858
vn -0.903873 -0.171633 -0.391862
vn -0.968627 -0.071990 0.237863
vn -0.968625 -0.071993 0.237872
vn -0.968623 -0.071995 0.237877
vn -0.968622 -0.071997 0.237882
vn -0.968622 -0.071997 0.237882
vn -0.968622 -0.071998 0.237881
vn -0.035359 -0.171638 -0.984525
vn -0.035359 -0.171638 -0.984525
vn -0.035359 -0.171639 -0.984525
vn -0.035359 -0.171639 -0.984525
vn -0.035360 -0.171641 -0.984525
vn 0.762436 -0.514917 -0.391857
vn 0.762436 -0.514917 -0.391857
vn 0.762435 -0.514918 -0.391857
vn 0.762435 -0.514919 -0.391857
vn 0.762434 -0.514919 -0.391858
vn 0.861303 -0.448967 0.237877
vn 0.861299 -0.448975 0.237879
vn 0.861297 -0.448978 0.237881
vn 0.861295 -0.448981 0.237881
vn 0.861295 -0.448981 0.237882
vn 0.861294 -0.448981 0.237883
vn -0.475145 -0.537974 -0.696291
vn -0.475145 -0.537974 -0.696291
vn -0.475144 -0.537975 -0.696290
vn -0.475144 -0.537976 -0.696290
vn -0.475144 -0.537977 -0.696289
vn -0.475145 -0.537977 -0.696289
vn -0.092496 -0.448984 0.888740
vn -0.092495 -0.448983 0.888740
vn -0.092495 -0.448981 0.888741
vn -0.092495 -0.448980 0.888741
vn -0.092494 -0.448979 0.888742
vn -0.092494 -0.448978 0.888743
vn -0.642848 -0.514919 0.567102
vn -0.642850 -0.514918 0.567100
vn -0.642850 -0.514918 0.567101
vn -0.642851 -0.514917 0.567101
vn -0.642850 -0.514916 0.567102
vn 0.223820 -0.681967 -0.696295
vn 0.223821 -0.681968 -0.696293
vn 0.223821 -0.681969 -0.696291
vn 0.223822 -0.681970 -0.696291
vn 0.223822 -0.681971 -0.696290
vn 0.223822 -0.681971 -0.696289
vn 0.386986 -0.727076 0.567100
vn 0.386986 -0.727076 0.567100
vn 0.386985 -0.727076 0.567100
vn 0.386985 -0.727077 0.567100
vn 0.386984 -0.727077 0.567100
vn -0.729967 -0.681971 -0.045432
vn -0.729967 -0.681971 -0.045432
vn -0.729967 -0.681970 -0.045432
vn -0.729968 -0.681970 -0.045432
vn -0.729968 -0.681970 -0.045431
vn -0.729968 -0.681970 -0.045431
vn 0.400983 -0.914958 -0.045430
vn 0.400982 -0.914959 -0.045430
vn 0.400983 -0.914958 -0.045431
vn 0.400982 -0.914959 -0.045431
vn 0.400984 -0.914958 -0.045431
vn 0.400985 -0.914957 -0.045432
vn -0.193494 -0.939233 -0.283551
vn -0.193493 -0.939233 -0.283551
vn -0.193494 -0.939233 -0.283551
vn -0.193493 -0.939234 -0.283550
vn -0.193494 -0.939233 -0.283550
vn -0.188490 -0.914959 0.356822
vn -0.188491 -0.914959 0.356822
vn -0.188492 -0.914958 0.356822
vn -0.188492 -0.914959 0.356820
vn -0.188492 -0.914958 0.356823
vn -0.188493 -0.914957 0.356826
f 1/1/1 2/2/2 3/3/3
f 2/2/2 5/4/4 3/3/3
f 5/4/4 12/5/5 3/3/3
f 12/5/5 8/6/6 3/3/3
f 1/1/7 3/3/8 4/7/9
f 3/3/8 7/8/10 4/7/9
f 7/8/10 15/9/11 4/7/9
f 15/9/11 10/10/12 4/7/9
f 4/7/13 9/11/14 1/12/15
f 9/11/14 6/13/16 1/12/15
f 6/13/16 2/14/17 1/12/15
f 6/15/18 13/16/19 2/17/20
f 13/16/19 20/18/21 2/17/20
f 20/18/21 11/19/22 2/17/20
f 11/19/22 5/20/23 2/17/20
f 8/21/24 16/22/25 3/23/26
f 16/22/25 14/24/27 3/23/26
f 14/24/27 7/8/28 3/23/26
f 10/10/29 18/25/30 4/7/31
f 18/25/30 27/26/32 4/7/31
f 27/26/32 17/27/33 4/7/31
f 17/27/33 9/11/34 4/7/31
f 5/119/35 11/28/36 12/120/37
f 11/28/36 19/29/38 12/121/37
f 19/29/38 21/30/39 12/122/37
f 6/15/40 9/11/41 13/16/42
f 9/11/41 17/27/43 13/16/42
f 17/27/43 26/31/44 13/16/42
f 26/31/44 22/32/45 13/16/42
f 7/8/46 14/24/47 15/9/48
f 14/24/47 23/33/49 15/9/48
f 23/33/49 34/34/50 15/9/48
f 34/34/50 24/35/51 15/9/48
f 8/36/52 12/37/53 16/38/54
f 12/37/53 21/39/55 16/38/54
f 21/39/55 31/40/56 16/38/54
f 31/40/56 25/41/57 16/38/54
f 10/10/58 15/9/59 18/42/60
f 15/9/59 24/43/61 18/42/60
f 24/43/61 28/44/62 18/42/60
f 20/45/63 30/46/64 11/47/65
f 30/46/64 40/48/66 11/47/65
f 40/48/66 29/49/67 11/47/65
f 29/49/67 19/50/68 11/47/65
f 22/32/69 32/51/70 13/52/71
f 32/51/70 30/53/72 13/52/71
f 30/53/72 20/54/73 13/52/71
f 14/24/74 16/38/75 23/33/76
f 16/38/75 25/41/77 23/33/76
f 25/41/77 35/55/78 23/33/76
f 35/55/78 33/56/79 23/33/76
f 27/57/80 37/58/81 17/27/82
f 37/58/81 36/59/83 17/27/82
f 36/59/83 26/31/84 17/27/82
f 28/60/85 38/61/86 18/25/87
f 38/61/86 47/62/88 18/25/87
f 47/62/88 37/63/89 18/25/87
f 37/63/89 27/26/90 18/25/87
f 29/64/91 39/65/92 19/66/93
f 39/65/92 41/67/94 19/66/93
f 41/67/94 31/68/95 19/66/93
f 31/68/95 21/69/96 19/66/93
f 22/32/97 26/31/98 32/51/99
f 26/31/98 36/70/100 32/51/99
f 36/70/100 46/71/101 32/51/99
f 46/71/101 42/72/102 32/51/99
f 23/33/103 33/56/104 34/73/105
f 33/56/104 43/74/106 34/73/105
f 43/74/106 44/75/107 34/73/105
f 34/34/108 44/76/109 24/35/110
f 44/76/109 48/77/111 24/35/110
f 48/77/111 38/78/112 24/35/110
f 38/78/112 28/79/113 24/35/110
f 25/80/114 31/81/115 35/55/116
f 31/81/115 41/82/117 35/55/116
f 41/82/117 45/83/118 35/55/116
f 40/84/119 50/85/120 29/86/121
f 50/85/120 49/87/122 29/86/121
f 49/87/122 39/88/123 29/86/121
f 30/46/124 32/51/125 40/48/126
f 32/51/125 42/72/127 40/48/126
f 42/72/127 51/89/128 40/48/126
f 51/89/128 50/90/129 40/48/126
f 33/56/130 35/55/131 43/91/132
f 35/55/131 45/83/133 43/91/132
f 45/83/133 53/92/134 43/91/132
f 53/92/134 52/93/135 43/91/132
f 36/70/136 37/94/137 46/71/138
f 37/94/137 47/95/139 46/71/138
f 47/95/139 55/96/140 46/71/138
f 55/96/140 54/97/141 46/71/138
f 48/98/142 56/99/143 38/100/144
f 56/99/143 55/96/145 38/100/144
f 55/96/145 47/95/146 38/100/144
f 49/87/147 57/101/148 39/65/149
f 57/101/148 53/92/150 39/65/149
f 53/92/150 45/83/151 39/65/149
f 45/83/151 41/67/152 39/65/149
f 42/72/153 46/102/154 51/89/155
f 46/102/154 54/103/156 51/89/155
f 54/103/156 58/104/157 51/89/155
f 52/93/158 59/105/159 43/91/160
f 59/105/159 56/106/161 43/91/160
f 56/106/161 48/107/162 43/91/160
f 48/107/162 44/108/163 43/91/160
f 49/87/164 50/85/165 57/101/166
f 50/85/165 51/109/167 57/101/166
f 51/109/167 58/110/168 57/101/166
f 58/110/168 60/111/169 57/101/166
f 52/112/170 53/92/171 59/113/172
f 53/92/171 57/101/173 59/113/172
f 57/101/173 60/114/174 59/113/172
f 54/115/175 55/116/176 58/110/177
f 55/116/176 56/117/178 58/110/177
f 56/117/178 59/118/179 58/110/177
f 59/118/179 60/111/180 58/110/177
