# This file uses centimeters as units for non-parametric coordinates.

v -34.914156 -2.441966 -13.276108
v -36.929096 -2.441966 -14.110723
v -38.944036 -2.441966 -13.276108
v -39.778652 -2.441966 -11.261168
v -38.944036 -2.441966 -9.246227
v -36.929096 -2.441966 -8.411612
v -34.914156 -2.441966 -9.246227
v -34.079540 -2.441966 -11.261168
v -34.323993 -0.427025 -13.866270
v -36.929096 -0.427025 -14.945339
v -39.534198 -0.427025 -13.866270
v -40.613268 -0.427025 -11.261168
v -39.534198 -0.427025 -8.656065
v -36.929096 -0.427025 -7.576996
v -34.323993 -0.427025 -8.656065
v -33.244924 -0.427025 -11.261168
v -32.899215 0.407590 -15.291048
v -36.929096 0.407590 -16.960279
v -40.958976 0.407590 -15.291048
v -42.628208 0.407590 -11.261168
v -40.958976 0.407590 -7.231287
v -36.929096 0.407590 -5.562056
v -32.899215 0.407590 -7.231287
v -31.229984 0.407590 -11.261168
v -31.474437 -0.427026 -16.715826
v -36.929096 -0.427026 -18.975220
v -42.383754 -0.427026 -16.715826
v -44.643148 -0.427026 -11.261168
v -42.383754 -0.427026 -5.806509
v -36.929096 -0.427026 -3.547116
v -31.474437 -0.427026 -5.806509
v -29.215044 -0.427026 -11.261168
v -30.884275 -2.441966 -17.305988
v -36.929096 -2.441966 -19.809834
v -42.973917 -2.441966 -17.305988
v -45.477762 -2.441966 -11.261168
v -42.973917 -2.441966 -5.216346
v -36.929096 -2.441966 -2.712500
v -30.884275 -2.441966 -5.216346
v -28.380427 -2.441966 -11.261168
v -31.474437 -4.456906 -16.715826
v -36.929096 -4.456906 -18.975220
v -42.383754 -4.456906 -16.715826
v -44.643148 -4.456906 -11.261168
v -42.383754 -4.456906 -5.806509
v -36.929096 -4.456906 -3.547116
v -31.474437 -4.456906 -5.806509
v -29.215044 -4.456906 -11.261168
v -32.899215 -5.291522 -15.291048
v -36.929096 -5.291522 -16.960279
v -40.958976 -5.291522 -15.291048
v -42.628208 -5.291522 -11.261168
v -40.958976 -5.291522 -7.231287
v -36.929096 -5.291522 -5.562056
v -32.899215 -5.291522 -7.231287
v -31.229984 -5.291522 -11.261168
v -34.323993 -4.456906 -13.866270
v -36.929096 -4.456906 -14.945339
v -39.534198 -4.456906 -13.866270
v -40.613268 -4.456906 -11.261168
v -39.534198 -4.456906 -8.656065
v -36.929096 -4.456906 -7.576996
v -34.323993 -4.456906 -8.656065
v -33.244924 -4.456906 -11.261168
vt 0.125000 1.000000
vt 0.000000 1.000000
vt 0.125000 0.875000
vt 0.000000 0.875000
vt 0.250000 1.000000
vt 0.250000 0.875000
vt 0.375000 1.000000
vt 0.375000 0.875000
vt 0.500000 1.000000
vt 0.500000 0.875000
vt 0.625000 1.000000
vt 0.625000 0.875000
vt 0.750000 1.000000
vt 0.750000 0.875000
vt 0.875000 1.000000
vt 0.875000 0.875000
vt 1.000000 1.000000
vt 1.000000 0.875000
vt 0.125000 0.750000
vt 0.000000 0.750000
vt 0.250000 0.750000
vt 0.375000 0.750000
vt 0.500000 0.750000
vt 0.625000 0.750000
vt 0.750000 0.750000
vt 0.875000 0.750000
vt 1.000000 0.750000
vt 0.125000 0.625000
vt 0.000000 0.625000
vt 0.250000 0.625000
vt 0.375000 0.625000
vt 0.500000 0.625000
vt 0.625000 0.625000
vt 0.750000 0.625000
vt 0.875000 0.625000
vt 1.000000 0.625000
vt 0.125000 0.500000
vt 0.000000 0.500000
vt 0.250000 0.500000
vt 0.375000 0.500000
vt 0.500000 0.500000
vt 0.625000 0.500000
vt 0.750000 0.500000
vt 0.875000 0.500000
vt 1.000000 0.500000
vt 0.125000 0.375000
vt 0.000000 0.375000
vt 0.250000 0.375000
vt 0.375000 0.375000
vt 0.500000 0.375000
vt 0.625000 0.375000
vt 0.750000 0.375000
vt 0.875000 0.375000
vt 1.000000 0.375000
vt 0.125000 0.250000
vt 0.000000 0.250000
vt 0.250000 0.250000
vt 0.375000 0.250000
vt 0.500000 0.250000
vt 0.625000 0.250000
vt 0.750000 0.250000
vt 0.875000 0.250000
vt 1.000000 0.250000
vt 0.125000 0.125000
vt 0.000000 0.125000
vt 0.250000 0.125000
vt 0.375000 0.125000
vt 0.500000 0.125000
vt 0.625000 0.125000
vt 0.750000 0.125000
vt 0.875000 0.125000
vt 1.000000 0.125000
vt 0.125000 0.000000
vt 0.000000 0.000000
vt 0.250000 0.000000
vt 0.375000 0.000000
vt 0.500000 0.000000
vt 0.625000 0.000000
vt 0.750000 0.000000
vt 0.875000 0.000000
vt 1.000000 0.000000
vn -0.357407 0.357407 0.862856
vn -0.357407 0.357407 0.862856
vn -0.357407 0.357407 0.862856
vn -0.357407 0.357407 0.862856
vn 0.357407 0.357407 0.862856
vn 0.357407 0.357407 0.862856
vn 0.357407 0.357407 0.862856
vn 0.357407 0.357407 0.862856
vn 0.862857 0.357405 0.357407
vn 0.862857 0.357406 0.357407
vn 0.862857 0.357406 0.357407
vn 0.862856 0.357406 0.357407
vn 0.862857 0.357405 -0.357407
vn 0.862857 0.357406 -0.357407
vn 0.862857 0.357406 -0.357407
vn 0.862856 0.357406 -0.357407
vn 0.357407 0.357407 -0.862856
vn 0.357407 0.357407 -0.862856
vn 0.357407 0.357407 -0.862856
vn 0.357407 0.357406 -0.862856
vn -0.357406 0.357407 -0.862856
vn -0.357407 0.357407 -0.862856
vn -0.357407 0.357407 -0.862856
vn -0.357407 0.357407 -0.862856
vn -0.862856 0.357407 -0.357407
vn -0.862856 0.357407 -0.357407
vn -0.862856 0.357407 -0.357407
vn -0.862856 0.357407 -0.357407
vn -0.862857 0.357406 0.357407
vn -0.862856 0.357407 0.357407
vn -0.862856 0.357407 0.357407
vn -0.862856 0.357407 0.357407
vn -0.156558 0.912487 0.377965
vn -0.156558 0.912487 0.377964
vn -0.156558 0.912487 0.377964
vn -0.156558 0.912487 0.377964
vn 0.156558 0.912487 0.377964
vn 0.156558 0.912487 0.377964
vn 0.156558 0.912487 0.377964
vn 0.156558 0.912487 0.377964
vn 0.377964 0.912487 0.156558
vn 0.377964 0.912487 0.156558
vn 0.377964 0.912487 0.156558
vn 0.377964 0.912487 0.156558
vn 0.377964 0.912487 -0.156558
vn 0.377964 0.912487 -0.156558
vn 0.377964 0.912487 -0.156558
vn 0.377965 0.912487 -0.156558
vn 0.156558 0.912487 -0.377964
vn 0.156558 0.912487 -0.377964
vn 0.156558 0.912487 -0.377964
vn 0.156558 0.912487 -0.377965
vn -0.156558 0.912487 -0.377964
vn -0.156558 0.912487 -0.377964
vn -0.156558 0.912487 -0.377964
vn -0.156558 0.912487 -0.377965
vn -0.377964 0.912487 -0.156558
vn -0.377964 0.912487 -0.156558
vn -0.377964 0.912487 -0.156558
vn -0.377964 0.912487 -0.156558
vn -0.377964 0.912487 0.156558
vn -0.377964 0.912487 0.156558
vn -0.377964 0.912487 0.156558
vn -0.377965 0.912487 0.156558
vn 0.156559 0.912487 -0.377965
vn 0.156558 0.912487 -0.377964
vn 0.156558 0.912487 -0.377964
vn 0.156558 0.912487 -0.377964
vn -0.156558 0.912487 -0.377964
vn -0.156558 0.912487 -0.377964
vn -0.156558 0.912487 -0.377964
vn -0.156558 0.912487 -0.377964
vn -0.377965 0.912487 -0.156558
vn -0.377964 0.912487 -0.156558
vn -0.377964 0.912487 -0.156558
vn -0.377964 0.912487 -0.156558
vn -0.377965 0.912487 0.156558
vn -0.377964 0.912487 0.156558
vn -0.377964 0.912487 0.156558
vn -0.377964 0.912487 0.156558
vn -0.156558 0.912487 0.377965
vn -0.156558 0.912487 0.377965
vn -0.156558 0.912487 0.377965
vn -0.156558 0.912487 0.377964
vn 0.156558 0.912487 0.377965
vn 0.156558 0.912487 0.377965
vn 0.156558 0.912487 0.377965
vn 0.156558 0.912487 0.377965
vn 0.377965 0.912487 0.156558
vn 0.377965 0.912487 0.156558
vn 0.377965 0.912487 0.156558
vn 0.377964 0.912487 0.156558
vn 0.377964 0.912487 -0.156558
vn 0.377964 0.912487 -0.156558
vn 0.377964 0.912487 -0.156558
vn 0.377964 0.912487 -0.156558
vn 0.357407 0.357406 -0.862856
vn 0.357407 0.357406 -0.862856
vn 0.357407 0.357406 -0.862856
vn 0.357406 0.357407 -0.862856
vn -0.357407 0.357407 -0.862856
vn -0.357407 0.357406 -0.862856
vn -0.357407 0.357406 -0.862856
vn -0.357407 0.357406 -0.862857
vn -0.862857 0.357404 -0.357407
vn -0.862856 0.357407 -0.357407
vn -0.862856 0.357407 -0.357407
vn -0.862855 0.357409 -0.357406
vn -0.862857 0.357406 0.357407
vn -0.862856 0.357406 0.357407
vn -0.862856 0.357406 0.357407
vn -0.862856 0.357407 0.357406
vn -0.357407 0.357407 0.862856
vn -0.357407 0.357407 0.862856
vn -0.357407 0.357407 0.862856
vn -0.357407 0.357407 0.862856
vn 0.357407 0.357407 0.862856
vn 0.357407 0.357407 0.862856
vn 0.357407 0.357407 0.862856
vn 0.357407 0.357407 0.862856
vn 0.862856 0.357407 0.357407
vn 0.862856 0.357407 0.357407
vn 0.862856 0.357407 0.357407
vn 0.862856 0.357407 0.357407
vn 0.862856 0.357407 -0.357407
vn 0.862856 0.357407 -0.357407
vn 0.862856 0.357407 -0.357407
vn 0.862856 0.357407 -0.357407
vn 0.357407 -0.357406 -0.862857
vn 0.357407 -0.357406 -0.862856
vn 0.357407 -0.357406 -0.862856
vn 0.357407 -0.357406 -0.862856
vn -0.357407 -0.357406 -0.862856
vn -0.357407 -0.357406 -0.862856
vn -0.357407 -0.357406 -0.862856
vn -0.357407 -0.357406 -0.862857
vn -0.862856 -0.357407 -0.357407
vn -0.862856 -0.357406 -0.357407
vn -0.862856 -0.357406 -0.357407
vn -0.862857 -0.357405 -0.357407
vn -0.862856 -0.357408 0.357406
vn -0.862856 -0.357406 0.357407
vn -0.862856 -0.357406 0.357407
vn -0.862857 -0.357404 0.357407
vn -0.357407 -0.357406 0.862856
vn -0.357407 -0.357407 0.862856
vn -0.357407 -0.357407 0.862856
vn -0.357407 -0.357407 0.862856
vn 0.357407 -0.357407 0.862856
vn 0.357407 -0.357407 0.862856
vn 0.357407 -0.357407 0.862856
vn 0.357407 -0.357407 0.862856
vn 0.862856 -0.357407 0.357407
vn 0.862856 -0.357407 0.357407
vn 0.862856 -0.357407 0.357407
vn 0.862856 -0.357407 0.357407
vn 0.862856 -0.357407 -0.357407
vn 0.862856 -0.357407 -0.357407
vn 0.862856 -0.357407 -0.357407
vn 0.862856 -0.357407 -0.357407
vn 0.156558 -0.912487 -0.377965
vn 0.156558 -0.912487 -0.377965
vn 0.156558 -0.912487 -0.377965
vn 0.156558 -0.912487 -0.377965
vn -0.156558 -0.912487 -0.377964
vn -0.156558 -0.912487 -0.377965
vn -0.156558 -0.912487 -0.377965
vn -0.156559 -0.912487 -0.377965
vn -0.377964 -0.912487 -0.156558
vn -0.377964 -0.912487 -0.156558
vn -0.377964 -0.912487 -0.156558
vn -0.377964 -0.912487 -0.156558
vn -0.377964 -0.912487 0.156558
vn -0.377964 -0.912487 0.156558
vn -0.377964 -0.912487 0.156558
vn -0.377965 -0.912487 0.156558
vn -0.156558 -0.912487 0.377965
vn -0.156558 -0.912487 0.377965
vn -0.156558 -0.912487 0.377965
vn -0.156558 -0.912487 0.377965
vn 0.156558 -0.912487 0.377965
vn 0.156558 -0.912487 0.377965
vn 0.156558 -0.912487 0.377965
vn 0.156558 -0.912487 0.377965
vn 0.377964 -0.912487 0.156558
vn 0.377965 -0.912487 0.156558
vn 0.377965 -0.912487 0.156558
vn 0.377965 -0.912487 0.156558
vn 0.377965 -0.912487 -0.156558
vn 0.377964 -0.912487 -0.156558
vn 0.377964 -0.912487 -0.156558
vn 0.377964 -0.912487 -0.156558
vn -0.156558 -0.912487 0.377965
vn -0.156558 -0.912487 0.377964
vn -0.156558 -0.912487 0.377964
vn -0.156558 -0.912487 0.377964
vn 0.156558 -0.912487 0.377965
vn 0.156558 -0.912487 0.377964
vn 0.156558 -0.912487 0.377964
vn 0.156558 -0.912487 0.377964
vn 0.377965 -0.912487 0.156558
vn 0.377964 -0.912487 0.156558
vn 0.377964 -0.912487 0.156558
vn 0.377964 -0.912487 0.156558
vn 0.377964 -0.912487 -0.156558
vn 0.377964 -0.912487 -0.156558
vn 0.377964 -0.912487 -0.156558
vn 0.377964 -0.912487 -0.156558
vn 0.156558 -0.912487 -0.377965
vn 0.156558 -0.912487 -0.377964
vn 0.156558 -0.912487 -0.377964
vn 0.156558 -0.912487 -0.377964
vn -0.156558 -0.912487 -0.377964
vn -0.156558 -0.912487 -0.377965
vn -0.156558 -0.912487 -0.377965
vn -0.156558 -0.912487 -0.377965
vn -0.377964 -0.912487 -0.156558
vn -0.377964 -0.912487 -0.156558
vn -0.377964 -0.912487 -0.156558
vn -0.377965 -0.912487 -0.156558
vn -0.377964 -0.912487 0.156558
vn -0.377964 -0.912487 0.156558
vn -0.377964 -0.912487 0.156558
vn -0.377964 -0.912487 0.156558
vn -0.357407 -0.357406 0.862856
vn -0.357407 -0.357407 0.862856
vn -0.357407 -0.357407 0.862856
vn -0.357407 -0.357407 0.862856
vn 0.357407 -0.357406 0.862856
vn 0.357407 -0.357407 0.862856
vn 0.357407 -0.357407 0.862856
vn 0.357407 -0.357407 0.862856
vn 0.862856 -0.357406 0.357407
vn 0.862857 -0.357406 0.357407
vn 0.862857 -0.357406 0.357407
vn 0.862857 -0.357405 0.357407
vn 0.862856 -0.357406 -0.357407
vn 0.862857 -0.357406 -0.357407
vn 0.862857 -0.357406 -0.357407
vn 0.862857 -0.357405 -0.357407
vn 0.357407 -0.357407 -0.862856
vn 0.357407 -0.357407 -0.862856
vn 0.357407 -0.357407 -0.862856
vn 0.357406 -0.357407 -0.862856
vn -0.357407 -0.357407 -0.862856
vn -0.357407 -0.357407 -0.862856
vn -0.357407 -0.357407 -0.862856
vn -0.357407 -0.357407 -0.862856
vn -0.862856 -0.357407 -0.357407
vn -0.862856 -0.357407 -0.357407
vn -0.862856 -0.357407 -0.357407
vn -0.862857 -0.357406 -0.357407
vn -0.862856 -0.357407 0.357407
vn -0.862856 -0.357407 0.357407
vn -0.862856 -0.357407 0.357407
vn -0.862856 -0.357407 0.357407
f 2/1/1 1/2/2 10/3/3
f 10/3/3 1/2/2 9/4/4
f 3/5/5 2/1/6 11/6/7
f 11/6/7 2/1/6 10/3/8
f 4/7/9 3/5/10 12/8/11
f 12/8/11 3/5/10 11/6/12
f 5/9/13 4/7/14 13/10/15
f 13/10/15 4/7/14 12/8/16
f 6/11/17 5/9/18 14/12/19
f 14/12/19 5/9/18 13/10/20
f 7/13/21 6/11/22 15/14/23
f 15/14/23 6/11/22 14/12/24
f 8/15/25 7/13/26 16/16/27
f 16/16/27 7/13/26 15/14/28
f 1/17/29 8/15/30 9/18/31
f 9/18/31 8/15/30 16/16/32
f 10/3/33 9/4/34 18/19/35
f 18/19/35 9/4/34 17/20/36
f 11/6/37 10/3/38 19/21/39
f 19/21/39 10/3/38 18/19/40
f 12/8/41 11/6/42 20/22/43
f 20/22/43 11/6/42 19/21/44
f 13/10/45 12/8/46 21/23/47
f 21/23/47 12/8/46 20/22/48
f 14/12/49 13/10/50 22/24/51
f 22/24/51 13/10/50 21/23/52
f 15/14/53 14/12/54 23/25/55
f 23/25/55 14/12/54 22/24/56
f 16/16/57 15/14/58 24/26/59
f 24/26/59 15/14/58 23/25/60
f 9/18/61 16/16/62 17/27/63
f 17/27/63 16/16/62 24/26/64
f 18/19/65 17/20/66 26/28/67
f 26/28/67 17/20/66 25/29/68
f 19/21/69 18/19/70 27/30/71
f 27/30/71 18/19/70 26/28/72
f 20/22/73 19/21/74 28/31/75
f 28/31/75 19/21/74 27/30/76
f 21/23/77 20/22/78 29/32/79
f 29/32/79 20/22/78 28/31/80
f 22/24/81 21/23/82 30/33/83
f 30/33/83 21/23/82 29/32/84
f 23/25/85 22/24/86 31/34/87
f 31/34/87 22/24/86 30/33/88
f 24/26/89 23/25/90 32/35/91
f 32/35/91 23/25/90 31/34/92
f 17/27/93 24/26/94 25/36/95
f 25/36/95 24/26/94 32/35/96
f 26/28/97 25/29/98 34/37/99
f 34/37/99 25/29/98 33/38/100
f 27/30/101 26/28/102 35/39/103
f 35/39/103 26/28/102 34/37/104
f 28/31/105 27/30/106 36/40/107
f 36/40/107 27/30/106 35/39/108
f 29/32/109 28/31/110 37/41/111
f 37/41/111 28/31/110 36/40/112
f 30/33/113 29/32/114 38/42/115
f 38/42/115 29/32/114 37/41/116
f 31/34/117 30/33/118 39/43/119
f 39/43/119 30/33/118 38/42/120
f 32/35/121 31/34/122 40/44/123
f 40/44/123 31/34/122 39/43/124
f 25/36/125 32/35/126 33/45/127
f 33/45/127 32/35/126 40/44/128
f 34/37/129 33/38/130 42/46/131
f 42/46/131 33/38/130 41/47/132
f 35/39/133 34/37/134 43/48/135
f 43/48/135 34/37/134 42/46/136
f 36/40/137 35/39/138 44/49/139
f 44/49/139 35/39/138 43/48/140
f 37/41/141 36/40/142 45/50/143
f 45/50/143 36/40/142 44/49/144
f 38/42/145 37/41/146 46/51/147
f 46/51/147 37/41/146 45/50/148
f 39/43/149 38/42/150 47/52/151
f 47/52/151 38/42/150 46/51/152
f 40/44/153 39/43/154 48/53/155
f 48/53/155 39/43/154 47/52/156
f 33/45/157 40/44/158 41/54/159
f 41/54/159 40/44/158 48/53/160
f 42/46/161 41/47/162 50/55/163
f 50/55/163 41/47/162 49/56/164
f 43/48/165 42/46/166 51/57/167
f 51/57/167 42/46/166 50/55/168
f 44/49/169 43/48/170 52/58/171
f 52/58/171 43/48/170 51/57/172
f 45/50/173 44/49/174 53/59/175
f 53/59/175 44/49/174 52/58/176
f 46/51/177 45/50/178 54/60/179
f 54/60/179 45/50/178 53/59/180
f 47/52/181 46/51/182 55/61/183
f 55/61/183 46/51/182 54/60/184
f 48/53/185 47/52/186 56/62/187
f 56/62/187 47/52/186 55/61/188
f 41/54/189 48/53/190 49/63/191
f 49/63/191 48/53/190 56/62/192
f 50/55/193 49/56/194 58/64/195
f 58/64/195 49/56/194 57/65/196
f 51/57/197 50/55/198 59/66/199
f 59/66/199 50/55/198 58/64/200
f 52/58/201 51/57/202 60/67/203
f 60/67/203 51/57/202 59/66/204
f 53/59/205 52/58/206 61/68/207
f 61/68/207 52/58/206 60/67/208
f 54/60/209 53/59/210 62/69/211
f 62/69/211 53/59/210 61/68/212
f 55/61/213 54/60/214 63/70/215
f 63/70/215 54/60/214 62/69/216
f 56/62/217 55/61/218 64/71/219
f 64/71/219 55/61/218 63/70/220
f 49/63/221 56/62/222 57/72/223
f 57/72/223 56/62/222 64/71/224
f 58/64/225 57/65/226 2/73/227
f 2/73/227 57/65/226 1/74/228
f 59/66/229 58/64/230 3/75/231
f 3/75/231 58/64/230 2/73/232
f 60/67/233 59/66/234 4/76/235
f 4/76/235 59/66/234 3/75/236
f 61/68/237 60/67/238 5/77/239
f 5/77/239 60/67/238 4/76/240
f 62/69/241 61/68/242 6/78/243
f 6/78/243 61/68/242 5/77/244
f 63/70/245 62/69/246 7/79/247
f 7/79/247 62/69/246 6/78/248
f 64/71/249 63/70/250 8/80/251
f 8/80/251 63/70/250 7/79/252
f 57/72/253 64/71/254 1/81/255
f 1/81/255 64/71/254 8/80/256
